<svg aria-hidden="true" style="position: absolute; width: 0; height: 0; overflow: hidden;" version="1.1" xmlns="http://www.w3.org/2000/svg" xmlns:xlink="http://www.w3.org/1999/xlink">
<defs>
<symbol id="icon-github" viewBox="0 0 32 32">
<path fill="#fea5bb" style="fill: var(--color1, #fea5bb)" d="M32 16c0 8.837-7.163 16-16 16s-16-7.163-16-16c0-8.837 7.163-16 16-16s16 7.163 16 16z"></path>
<path fill="#fff" style="fill: var(--color2, #fff)" d="M16 6.6c-5.191 0-9.4 4.209-9.4 9.4v0c0 4.4 3 8.4 7.2 9.4v-3.1h-1.2c-0.6-0.2-1-0.6-1.3-1.1-0.3-0.4-0.6-0.8-1-0.8l-0.1-1c0.8-0.1 1.6 0.5 2 1.2 0.2 0.3 0.4 0.5 0.7 0.6h1c0-0.8 0.3-1 0.6-1.4-2.5-0.4-3.4-1.7-3.8-2.7-0.5-1.4-0.3-3 0.6-4.1v-0.1c-0.3-1.3 0.2-2.3 0.2-2.5 0.5 0.2 0.5-0.1 2 0.8l0.3 0.2h0.2c0.595-0.175 1.282-0.284 1.991-0.3l0.009-0c0.718 0.016 1.405 0.125 2.057 0.314l-0.056-0.014h0.2c1.9-1.2 1.8-0.8 2.3-1 0 0.2 0.5 1.2 0.1 2.5 0 0.1 1.7 1.7 0.7 4.2-0.4 1-1.3 2.3-3.8 2.7 0.3 0.5 0.7 0.7 0.7 1.7v4c4.1-1 7.2-5 7.2-9.5 0-5.2-4.2-9.4-9.4-9.4z"></path>
</symbol>
<symbol id="icon-telegram" viewBox="0 0 33 32">
<path fill="#fea5bb" style="fill: var(--color1, #fea5bb)" d="M32.2 16c0 8.837-7.163 16-16 16s-16-7.163-16-16c0-8.837 7.163-16 16-16s16 7.163 16 16z"></path>
<path fill="#fff" style="fill: var(--color2, #fff)" d="M13.1 18.4l-0.3 4.1c0.4 0 0.6-0.1 0.9-0.4l2.1-1.9 4.4 3c0.8 0.5 1.4 0.3 1.6-0.6l3-12.7c0.2-1.1-0.5-1.6-1.3-1.3l-17 6.1c-1.2 0.4-1.2 1-0.2 1.3l4.3 1.3 10.1-6c0.5-0.2 1 0 0.6 0.2l-8.3 6.9z"></path>
</symbol>
<symbol id="icon-facebook" viewBox="0 0 33 32">
<path fill="#fea5bb" style="fill: var(--color1, #fea5bb)" d="M16.5 32c8.837 0 16-7.163 16-16s-7.163-16-16-16v0c-8.837 0-16 7.163-16 16s7.163 16 16 16v0z"></path>
<path fill="#fff" style="fill: var(--color2, #fff)" d="M21 16h-2.7v9.6h-4v-9.6h-1.8v-3.4h1.9v-2.2c0-1.6 0.7-4 4-4h2.9v3.3h-2.3c-0.3 0-0.8 0.2-0.8 1v1.9h3l-0.4 3.4z"></path>
</symbol>
</defs>
</svg>
